<svg xmlns="http://www.w3.org/2000/svg" viewBox="0 0 256 172.14"><defs><style>.a{fill:#fafafa;}.b{fill:#fff;}.c{fill:#e6e6e6;}.d{fill:#f2f2f2;}.e{fill:#d7d7d9;}.f{fill:#b3b3b3;}.g{fill:#5a585a;}.h{fill:#fb0;}.i{fill:none;}</style></defs><title>Rocket</title><path class="a" d="M37.89,165.89A13,13,0,0,1,25,153.45l-.53.14a12.93,12.93,0,0,1-8.16-24.49q2.82-1.14,5.7-2.25l-2.05.64a12.93,12.93,0,0,1-8-24.61l.37-.12c15-5,30.51-10.11,46-14.72-6.8.65-12.58,1.16-17,1.48a12.93,12.93,0,0,1-5.66-24.93c6-2.37,14.56-4.7,24.62-7a12.93,12.93,0,0,1-2.42-24.8c6.71-2.59,19.64-5,40.14-8.54,15-2.63,37.77-6.6,43-9.13a12.93,12.93,0,0,1,18.45,13.35l22.73-.12h.07a12.93,12.93,0,0,1,12.83,11.34,14.71,14.71,0,0,1-2.23,9.74c6.58-.38,12.23-.59,16.62-.57A12.93,12.93,0,0,1,213.63,74q-5.93,2-12.28,4a12.93,12.93,0,0,1,1.54,25.39c-9.84,2.44-19.91,4.87-30.57,7.44-9.62,2.32-19.5,4.7-29.49,7.17a12.93,12.93,0,0,1,.76,8.51c-1.16,4.6-4.7,10.57-14.91,12.89a673.91,673.91,0,0,0-86.25,25.73A12.91,12.91,0,0,1,37.89,165.89Z"/><path class="a" d="M33.84,168a12.93,12.93,0,0,1-3.07-25.5L225.66,94.78a12.93,12.93,0,0,1,10,23.5c-.4.25-2.78,1.75-6.53,4l7.51-.6a12.93,12.93,0,0,1,2.05,25.78L164,153.41a12.94,12.94,0,0,1-13.95-13.49L36.92,167.64A13,13,0,0,1,33.84,168Z"/><path class="b" d="M176.14,143.94a3,3,0,0,1-2.85-2.19,29.74,29.74,0,0,0-6-11.48,3,3,0,0,1-.66-1.42q-.73-.8-1.53-1.55a4.53,4.53,0,0,1-.67-.62c-3.92-3.53-8.87-6.44-14.31-9.36l-1.72-.92a3,3,0,0,1-1.3-3.84q-.86-.74-1.68-1.52a3,3,0,0,1-.65-3.38,13.14,13.14,0,0,1-.41-8.81,3,3,0,0,1,.12-.32A4.24,4.24,0,0,1,146.34,95,29.73,29.73,0,0,0,145,91.12a3,3,0,0,1-.12-2,3,3,0,0,1,3.9-4.14,59,59,0,0,1,31.82,52.31,3,3,0,0,1-1.34,2.48l-.3.17.09.52a3,3,0,0,1-2.92,3.45Z"/><path class="b" d="M80.27,146.79h-.06a3,3,0,0,1-2.77-2.09c-2.56-8.33-1.76-18.24,2.23-28,.2-.7.41-1.36.62-2a80.56,80.56,0,0,1,7.52-15.41,25.66,25.66,0,0,1,2-3.34A3,3,0,0,1,93,94.79l.86-1.14a2.94,2.94,0,0,1,.71-1.23l1.1-1.14a2.94,2.94,0,0,1,.92-.65c3.39-2.92,7.47-6,12.44-6.91a17.2,17.2,0,0,1,10.13,1.16,3,3,0,0,1-2.38,5.41,11.31,11.31,0,0,0-6.67-.76,13.33,13.33,0,0,0-3.52,1.23,18,18,0,0,1,.72,4.43l.67,1.27a37.8,37.8,0,0,1,3.44,7.83c1.35,4.92.48,11.61-4.62,14.68a16.12,16.12,0,0,1-4.77,1.71c-.49.12-1,.23-1.47.37-4.16,1.19-8.1,4.41-11.1,9.07-2.71,4.21-4.38,9-6.15,14l-.24.68A3,3,0,0,1,80.27,146.79Zm25-42.16.17.41-.15-.45Zm-5-8.27.22,0c0-.11,0-.21,0-.32Z"/><path class="b" d="M138.61,136.75c2.39-4.46,3.57-9.45,4.65-14.39,3.93-18,7-36.29,6.52-54.69s-4.8-37-14.71-52.54c-1.17-1.83-2.56-3.73-4.63-4.39-3.75-1.2-7.31,2.17-9.6,5.38-9.37,13.2-14.33,29.21-15.78,45.32s.56,32.38,4.09,48.17a246.81,246.81,0,0,0,7.43,26.27c4.26,1.65,9.12,2.82,13.65,2.28"/><path class="c" d="M126.77,145a24.85,24.85,0,0,1-5.55-.62,3,3,0,0,1,1.32-5.76,19,19,0,0,0,8.18.06,3,3,0,0,1,1.24,5.78A24.86,24.86,0,0,1,126.77,145Z"/><path class="a" d="M136.85,33.85a5.91,5.91,0,0,1-3.37-1.06c-1.46-1-4.33-1.15-6.64-1.26-.52,0-1.11,0-1.74,0-2.69.05-6.77.12-9.12-3.46-1-1.6-1.92-4.32-.15-8.2,1.45-3.17,4.29-5.8,6.56-7.92.45-.41.87-.81,1.25-1.17a9.81,9.81,0,0,1,6.82-3.2h.07c2.35,0,6.59,1,8.79,7.64l2.14,6.37a20.17,20.17,0,0,1,1.31,6,5.91,5.91,0,0,1-5.9,6.28ZM127.77,15h0Z"/><path class="c" d="M127.44,131.74a3,3,0,0,1-2.92-2.51,63.75,63.75,0,0,1-.73-11.29l-.15-29.45a3,3,0,0,1,2.94-3h0a3,3,0,0,1,3,2.94l.15,29.49s0,.06,0,.09a57.81,57.81,0,0,0,.66,10.28,3,3,0,0,1-2.47,3.37A3,3,0,0,1,127.44,131.74Z"/><path class="c" d="M124.45,28.94a21.86,21.86,0,0,1-2.81-.18h-.1a7.52,7.52,0,0,1-2.87-1.07,3,3,0,0,1-3.26-4.5c.76-1.12,1.43-2.21,2.07-3.26,2-3.23,3.86-6.29,7.47-8.67a8.39,8.39,0,0,1,4.17-1.63,3,3,0,0,1,.48,0,7.59,7.59,0,0,1,4.79,2.1,15.38,15.38,0,0,1,5.12,13.39,3.84,3.84,0,0,1-.79,2,3,3,0,0,1-.47.48,4,4,0,0,1-2.58.88l-9.65.4Q125.24,28.94,124.45,28.94Z"/><path class="d" d="M108.42,119.53a3,3,0,0,1-2.91-2.47c-1.64-9.76-3.33-19.66-5-29.42a3,3,0,1,1,5.83-1c1.69,9.77,3.37,19.68,5,29.44a3,3,0,0,1-2.92,3.45Z"/><path class="d" d="M149.45,120.08a2.94,2.94,0,0,1-1.26-.28,8.32,8.32,0,0,1-2.64-2l-.12-.15c-2-2.47-1.24-5.61-.85-7.3,1.79-7.72,2.48-15.86,3.15-23.73l2.95.2,2.94.3c-.69,8.08-1.4,16.44-3.28,24.56a6.18,6.18,0,0,0-.28,2.27,2.44,2.44,0,0,0,.65.45,3,3,0,0,1-1.26,5.63Z"/><path class="c" d="M117,117.17a1.48,1.48,0,0,1-1.45-1.18c-3.77-18-8-38.46-4.95-58.25a1.48,1.48,0,1,1,2.92.46c-3,19.26,1.2,39.41,4.92,57.19a1.48,1.48,0,0,1-1.45,1.78Z"/><path class="d" d="M176.15,146.2a1.48,1.48,0,0,1-1.31-.8c-1.58-3-1.28-5.95-1-8.77.19-1.83.22-3.68.25-5.47s.06-3.76.26-5.66a1.48,1.48,0,0,1,.64-1.08,1.48,1.48,0,0,1,2.92-.4c1.05,4.94,2.4,14.26-.4,21.23a1.48,1.48,0,0,1-1.3.93Z"/><path class="d" d="M81.66,146.33a1.48,1.48,0,0,1-1.13-.53,20.36,20.36,0,0,1-4.74-12.08,28.62,28.62,0,0,1,.87-7.77,51.09,51.09,0,0,1,1.78-5.86,1.48,1.48,0,1,1,2.77,1l-.18.49a1.47,1.47,0,0,1,.49.12,9.53,9.53,0,0,1,5.24,5.85l.27.08a2.54,2.54,0,0,1,1.36,1.19,1.48,1.48,0,0,1,1,2.42,36.71,36.71,0,0,1-4.11,4.18,1.47,1.47,0,0,1-.25.17,40,40,0,0,0-.62,6.94A1.48,1.48,0,0,1,83.29,144a5.71,5.71,0,0,1-.21,1.26,1.48,1.48,0,0,1-1.42,1.07Z"/><path class="e" d="M130.11,28.57c-4.67,0-9.81-.55-13.2-2.18a3,3,0,0,1-1.22-4.24c3.41-5.41,5.12-8,9.94-12.08a3,3,0,0,1,3.83,4.5A31.85,31.85,0,0,0,122.78,22a48.34,48.34,0,0,0,14.33.14A3,3,0,1,1,138,28,54.78,54.78,0,0,1,130.11,28.57Z"/><path class="c" d="M176.68,66.48a1.48,1.48,0,0,1-1.27-.72c-3.76-6.29-5-13.57-6.3-20.61s-2.41-13.58-5.77-19.35c-1.51-2.59-3.11-4.25-4.91-5.08A1.48,1.48,0,0,1,159.67,18c2.37,1.09,4.4,3.14,6.22,6.27,3.62,6.22,4.89,13.39,6.12,20.32,1.26,7.09,2.45,13.79,5.93,19.61a1.48,1.48,0,0,1-1.27,2.24Z"/><path class="c" d="M61.43,93.12a1.48,1.48,0,0,1-1-2.52,33.18,33.18,0,0,1,17-9.09,1.48,1.48,0,1,1,.58,2.9,30.23,30.23,0,0,0-15.45,8.28A1.47,1.47,0,0,1,61.43,93.12Z"/><path class="f" d="M128.24,170.38h0a1.48,1.48,0,0,1-1.34-1,1.93,1.93,0,0,1-.35-.46,1.49,1.49,0,0,1-1.13-.91,1.47,1.47,0,0,1,.11-1.24,3.4,3.4,0,0,1-1.11-2.06,1.47,1.47,0,0,1-.63-.63l-1.2-2.29h-.22a1.48,1.48,0,0,1-1.26-1,22.13,22.13,0,0,1-1.09-6.13,1.45,1.45,0,0,1,0-.41l0-.89a1.46,1.46,0,0,1,.15-.6c.1-.73.19-1.41.29-2.09s.16-1.09.23-1.66a2.21,2.21,0,0,1,0-.34c.06-.45.12-.91.18-1.4a1.48,1.48,0,0,1,2.57-.8,8.94,8.94,0,0,1,2.21.21,9.24,9.24,0,0,0,1.5,0,13.53,13.53,0,0,1,1.8-.06,5.63,5.63,0,0,1,1.14.18h0l.19-.17.16-.11a2,2,0,0,1,2,0,2.37,2.37,0,0,1,1.21,2,1.51,1.51,0,0,1,0,.2,3.67,3.67,0,0,1-.43,1.28,11.4,11.4,0,0,1-.24,8.93,4.64,4.64,0,0,1-1.09,2.44,5.64,5.64,0,0,1-.58,1.64l-.1.15a2.12,2.12,0,0,1,.13,1.33,1.49,1.49,0,0,1-.29.62q-.69.86-1.44,1.67,0,.83,0,1.74a2,2,0,0,1,0,.6A1.48,1.48,0,0,1,128.24,170.38Z"/><path class="c" d="M127.17,160.22l-.27,0a1.48,1.48,0,0,1-1.2-1.62c.19-1.67-.4-4.67-1.35-5.79a1.51,1.51,0,0,1-.19-.28,7.15,7.15,0,0,1-.65-4.62,1.48,1.48,0,0,1,1.74-1.16l.19.05a3.53,3.53,0,0,1,1.76,0l.17.05a3.07,3.07,0,0,0,.42.12,1.48,1.48,0,0,1,2.6-.28c1.12,1.65,1.2,3.87.23,6.41-.58,1.51-1.59,4.4-2,6.07A1.48,1.48,0,0,1,127.17,160.22Zm.43-7.72,0,.09,0-.11Z"/><path class="c" d="M80.39,63.49l-.26,0a1.48,1.48,0,0,1-1.2-1.71,67.24,67.24,0,0,1,21-38,1.48,1.48,0,0,1,2,2.19,64.27,64.27,0,0,0-20.1,36.37A1.48,1.48,0,0,1,80.39,63.49Z"/><path class="g" d="M127.92,138.85a32.47,32.47,0,0,1-11.55-2.45.55.55,0,0,1-.32-.34,248.37,248.37,0,0,1-7.44-26.33c-4.05-18.12-5.4-33.93-4.1-48.34,1.56-17.4,7.05-33.17,15.88-45.6,1.91-2.69,5.79-7,10.22-5.59,2.19.69,3.66,2.63,4.93,4.62,9.12,14.3,14.24,32.56,14.8,52.82.54,19.53-3,38.67-6.53,54.83-1.12,5.13-2.32,10.11-4.7,14.54a.55.55,0,0,1-1-.52c2.31-4.31,3.45-9,4.59-14.25,3.52-16.09,7-35.15,6.51-54.56-.56-20.06-5.61-38.13-14.62-52.26-1.16-1.81-2.48-3.57-4.33-4.16-3.75-1.2-7.24,2.73-9,5.17-8.71,12.27-14.13,27.84-15.68,45.05-1.28,14.3.05,30,4.08,48a247.57,247.57,0,0,0,7.32,26c4.95,1.88,9.37,2.61,13.15,2.16a.55.55,0,1,1,.13,1.1A20,20,0,0,1,127.92,138.85Z"/><path class="g" d="M127.66,145.93a25.62,25.62,0,0,1-4.54-.41,3.19,3.19,0,0,1-1.63-.67l-.08-.08a7,7,0,0,1-1.13-1.88c-.33-.58-.67-1.23-1-1.88a28.12,28.12,0,0,1-1.87-4.17.55.55,0,0,1,1-.37,27,27,0,0,0,1.8,4c.35.65.69,1.3,1,1.94a6.17,6.17,0,0,0,.94,1.6,2.12,2.12,0,0,0,1.05.41,24.64,24.64,0,0,0,5.84.35,20.18,20.18,0,0,0,2.87-.39,2.93,2.93,0,0,0,1.32-.46,5.34,5.34,0,0,0,1-1.66c.11-.25.22-.5.33-.72l.44-.87c.59-1.16,1.21-2.36,1.71-3.58a.55.55,0,0,1,1,.42c-.52,1.25-1.14,2.48-1.75,3.66l-.44.87c-.1.2-.2.43-.31.66a5.82,5.82,0,0,1-1.3,2.09,4,4,0,0,1-1.82.67,20.59,20.59,0,0,1-3,.4Q128.42,145.93,127.66,145.93Z"/><path class="g" d="M176.36,147.09a1.29,1.29,0,0,1-1.23-.91c-.25-.72-.59-1.5-.83-2.07l-.26-.62a41.17,41.17,0,0,0-2.79-5,51.52,51.52,0,0,0-5.77-8c-4-4.47-10.36-10.29-18.27-12.62a.55.55,0,0,1,.31-1.06c8.16,2.4,14.72,8.37,18.79,12.95a52.57,52.57,0,0,1,5.88,8.14,42,42,0,0,1,2.86,5.13l.26.62c.25.58.59,1.38.87,2.16a.19.19,0,0,0,.11.14.18.18,0,0,0,.14,0,.18.18,0,0,0,.1-.1c2.63-6,5.43-18.85-5.29-38.54a53.21,53.21,0,0,0-21.81-21.71.55.55,0,0,1,.52-1,54.32,54.32,0,0,1,22.26,22.16c11,20.1,8,33.37,5.34,39.49A1.28,1.28,0,0,1,176.36,147.09Z"/><path class="g" d="M128.23,133.47a2,2,0,0,1-.36,0,3.57,3.57,0,0,1-2.37-2.11,15.61,15.61,0,0,1-1-5.65c-.42-7.56-.44-24.06-.32-32.82h0a42.39,42.39,0,0,1,1.59-9.07,1.2,1.2,0,0,1,2.31-.07c.81,2.46,1.78,5.69,1.78,7.12v21.05c0,.58.06,2,.13,3.77.51,12.3.44,16.48-.3,17.2A2,2,0,0,1,128.23,133.47Zm-3-40.6c-.12,8.75-.11,25.21.32,32.74a14.75,14.75,0,0,0,.94,5.24,2.51,2.51,0,0,0,1.56,1.49.87.87,0,0,0,.8-.27c.6-1,.16-11.78,0-16.37-.07-1.8-.13-3.22-.13-3.82V90.84A31.23,31.23,0,0,0,127,84.05a.1.1,0,0,0-.12-.07.1.1,0,0,0-.06.07,42.1,42.1,0,0,0-1.55,8.81Z"/><path class="g" d="M127.65,28.11a81.43,81.43,0,0,1-11.38-.8.55.55,0,0,1,.15-1.1,80.36,80.36,0,0,0,21.06.19.55.55,0,0,1,.14,1.1A81.38,81.38,0,0,1,127.65,28.11Z"/><path class="h" d="M122.15,44.69c1.78,3.09,6.41,4.46,9.17,1.16a5.72,5.72,0,0,0-3-9.4,5.91,5.91,0,0,0-6.67,3.95A5.34,5.34,0,0,0,122.15,44.69Z"/><path class="h" d="M126.64,69.12A4.93,4.93,0,0,0,131,67.7c2-2.29.69-6.22-2-7.19C122.1,58,119.57,68.21,126.64,69.12Z"/><path class="g" d="M162.91,112.77a.55.55,0,0,1-.31-.1,36.35,36.35,0,0,0-6.13-3.4.55.55,0,0,1,.44-1,37.43,37.43,0,0,1,6.32,3.51.55.55,0,0,1-.32,1Z"/><path class="g" d="M82,147a1,1,0,0,1-.74-.33,16.46,16.46,0,0,1-3.82-6c-3.27-8.78-1.5-19.82,5.26-32.81a61.85,61.85,0,0,1,21-23.47.55.55,0,0,1,.61.93,60.75,60.75,0,0,0-20.63,23.05c-6.61,12.7-8.36,23.43-5.2,31.92a15.37,15.37,0,0,0,3.55,5.6,1.59,1.59,0,0,0,.46-.93,34,34,0,0,1,25.6-28.09.55.55,0,1,1,.24,1.08A32.89,32.89,0,0,0,83.62,145a2.36,2.36,0,0,1-1.26,1.87A1,1,0,0,1,82,147Z"/><path class="g" d="M127.94,172.14h-.05a.55.55,0,0,1-.48-.41,20.75,20.75,0,0,0-.66-2,.55.55,0,0,1-.49.42.54.54,0,0,1-.55-.34c-.49-1.18-1.15-2.91-1.8-4.58l-1.09-2.79a.55.55,0,0,1-.76-.08c-3.63-4.31-2.46-10.28-1.44-15.55l.07-.38a.55.55,0,1,1,1.09.21l-.07.38c-.93,4.76-1.88,9.66.36,13.45v-.05a.55.55,0,0,1,.47-.5.55.55,0,0,1,.59.34c.49,1.18,1.15,2.91,1.8,4.58.39,1,.79,2,1.15,3a.55.55,0,0,1,1,0,22,22,0,0,1,1,2.33c.72-1.53,1.89-4.05,2.45-5.47l.51-1.27a54.11,54.11,0,0,0,2.55-7.23A12.19,12.19,0,0,0,132,147.3a.55.55,0,1,1,.95-.58,13.29,13.29,0,0,1,1.7,9.59,54.67,54.67,0,0,1-2.61,7.42l-.51,1.27c-.85,2.15-3,6.63-3.09,6.82A.55.55,0,0,1,127.94,172.14Z"/><rect class="i" width="256" height="172.14"/></svg>