<svg xmlns="http://www.w3.org/2000/svg" viewBox="0 0 256 172.14"><defs><style>.a{fill:#fafafa;}.b{fill:#e6e6e6;}.c{fill:#5a585a;}.d{fill:#ccc;}.e{fill:#f9f9f9;}.f{fill:#fff;}.g{fill:#f2f2f2;}.h{fill:none;}</style></defs><title>A happy Digit Representative</title><path class="a" d="M60.63,162.57A12.95,12.95,0,0,1,48,152.28l-5.85,2a12.93,12.93,0,0,1-10.48-23.54q9.27-5.15,18.66-10.07a12.94,12.94,0,0,1-8.89-14.27l-3,1.15A12.93,12.93,0,0,1,27.48,84.18l.59-.33a12.94,12.94,0,0,1-2-20.6,12.93,12.93,0,0,1,6-15.75A458,458,0,0,1,118.6,11.32,12.94,12.94,0,0,1,135.25,23q19.91-5.7,40-10.43a12.93,12.93,0,0,1,15,17.4q9.21-2.73,18.29-5.4a12.93,12.93,0,0,1,12.63,21.71,12.93,12.93,0,0,1,4.32,24.91l-18,7.27h.14a12.94,12.94,0,0,1,8.49,22.68,12.93,12.93,0,0,1-2.56,21.33l-9,4.57a12.94,12.94,0,0,1-3.89,18.08L181.93,157a12.93,12.93,0,0,1-17.84-4q-.23-.37-.43-.74l-14.41,2.35a12.94,12.94,0,0,1-14.92-14.27c-23.55,6.62-46.81,14.17-69.7,21.61A12.93,12.93,0,0,1,60.63,162.57Z"/><path class="b" d="M219.31,159.52s1.51-15.5-25.57-26c-14.37-5.55-44.09-11.2-44.09-11.2-15.9-2.74-24.91-3.65-40.9-1.4l-10.22,2c-12.37,1.22-23.63,7.59-35.24,12s-22.37,12.57-27.18,24"/><path class="c" d="M219.31,160.08h-.05a.55.55,0,0,1-.5-.6s.32-3.82-2.61-8.81c-2.71-4.63-8.83-11.26-22.61-16.59-14.16-5.47-43.7-11.12-44-11.18-15.48-2.67-24.55-3.67-40.72-1.4l-10.19,2c-9,.89-17.55,4.57-25.81,8.13-3.05,1.32-6.21,2.68-9.34,3.87-12.8,4.9-22.6,13.55-26.87,23.72a.55.55,0,0,1-1-.43C40,148.37,50,139.51,63.09,134.5c3.11-1.19,6.26-2.55,9.3-3.86,8.34-3.59,17-7.31,26.08-8.21l10.16-2c16.36-2.31,25.5-1.29,41.1,1.4.31.06,29.95,5.72,44.2,11.23,27.16,10.5,26,25.89,25.92,26.54A.55.55,0,0,1,219.31,160.08Z"/><path class="d" d="M60.53,148.32a1.17,1.17,0,0,1-.87-2c5.15-5.73,18.72-10,22.08-10.87a1.17,1.17,0,1,1,.57,2.27c-4.76,1.19-16.62,5.4-20.9,10.17A1.17,1.17,0,0,1,60.53,148.32Z"/><path class="b" d="M123.9,136.6h-.1c-6.67-.45-11.79-5.7-16.31-10.33a37.46,37.46,0,0,0-6.15-5.53,1.17,1.17,0,1,1,1.23-2,38.8,38.8,0,0,1,6.6,5.89c4.22,4.33,9,9.24,14.78,9.63,1.27-.09,9.16-4.06,14.39-6.69,10.52-5.29,10.55-5.26,11.34-4.3a1.26,1.26,0,0,1,0,1.59,1.17,1.17,0,0,1-1.24.42c-1.4.54-5.43,2.57-9,4.38C129.32,134.74,125.36,136.6,123.9,136.6Zm23.91-13.16h0Z"/><path class="e" d="M110.75,161.92a12.81,12.81,0,0,1-7.51-2.3c-6.42-4.43-6.06-15.25-5.77-23.94a59.71,59.71,0,0,0-.06-8.37,2.59,2.59,0,0,1,1.75-2.79c10.12-3.36,16.23,4.73,19.58,12.1,3,6.69,3.16,11.76,2.55,17.64.53-.15,1.07-.3,1.6-.43a2.67,2.67,0,0,1,.24-.28,6.67,6.67,0,0,1,1.14-.91,2.58,2.58,0,0,1-1-1.72,18.09,18.09,0,0,1,1-8.24l1-8a2.59,2.59,0,0,1,2.52-2.26,2.54,2.54,0,0,1,2.27,1.27q.84-.84,1.78-1.62c5.21-4.36,11.47-6.75,17.52-9.05a2.59,2.59,0,0,1,3.49,2.13,81.54,81.54,0,0,1-3.36,33.95,2.59,2.59,0,0,1-5.05-.75l0-2.67a7.18,7.18,0,0,1-1.53,1.74l0,.11a2.59,2.59,0,0,1-2.73,1.67l-.23,0a5.87,5.87,0,0,1-2.46.86,7.78,7.78,0,0,1-1.94-.05,2.59,2.59,0,0,1-4.48-.09,24.7,24.7,0,0,1-9.42.82l-1.81-.13a2.59,2.59,0,0,1-2.65.31A24.21,24.21,0,0,1,110.75,161.92Zm-1-7.57.23,0q2,.27,4,.49c-1.17-2.93-2.34-5.6-3.48-8.21Q110.31,150.51,109.77,154.35Zm.52-21.82c1.64,4.49,3.31,8.3,4.93,12l1.09,2.5a24.23,24.23,0,0,0-2.28-8.26A27.11,27.11,0,0,0,110.3,132.52Zm31.13,11.7,0,.18.13-.54Zm-37.32-7.82,1.36,4.27q-.05-3.91-.46-7.81a2.59,2.59,0,0,1,2.48-2.86,7.11,7.11,0,0,0-4.76-1c0,1.26,0,2.63,0,4.07a2.56,2.56,0,0,1,.53.76A11.81,11.81,0,0,1,104.11,136.41Z"/><path class="c" d="M219.31,160.08h-.05a.55.55,0,0,1-.5-.6s.32-3.82-2.61-8.81c-2.71-4.63-8.83-11.26-22.61-16.59-14.16-5.47-43.7-11.12-44-11.18-15.48-2.67-24.55-3.67-40.72-1.4l-10.19,2c-9,.89-17.55,4.57-25.81,8.13-3.05,1.32-6.21,2.68-9.34,3.87-12.8,4.9-22.6,13.55-26.87,23.72a.55.55,0,0,1-1-.43C40,148.37,50,139.51,63.09,134.5c3.11-1.19,6.26-2.55,9.3-3.86,8.34-3.59,17-7.31,26.08-8.21l10.16-2c16.36-2.31,25.5-1.29,41.1,1.4.31.06,29.95,5.72,44.2,11.23,27.16,10.5,26,25.89,25.92,26.54A.55.55,0,0,1,219.31,160.08Z"/><path class="f" d="M101,101.78c.55,7.17,0,12,.37,19a3.35,3.35,0,0,0,.89,2.07c6.2,6.62,13.25,12,22.34,12.18a35.74,35.74,0,0,0,25.77-10.26h0a3.35,3.35,0,0,1-1.64-2.92c0-2.81.12-8.4.27-15,.16-6.86,2.2-19,3.13-24.15A3.35,3.35,0,0,1,154.77,80a9.58,9.58,0,0,0,4.69-2.09,13.21,13.21,0,0,0,3.49-8c.8-10.87-3.85-15.09-7.46-15.21a3.25,3.25,0,0,1-3.26-3l-.57-9.74a3.35,3.35,0,0,0-1.86-2.81L123.93,26.33a3.35,3.35,0,0,0-2.23-.27L95.87,31.94a3.35,3.35,0,0,0-2,1.41L92.67,35a3.35,3.35,0,0,0-.55,2.17l.68,7.31a3.17,3.17,0,0,1,0,.54A193.42,193.42,0,0,0,93,76.3a3.47,3.47,0,0,0,.12.63l5.74,20.58a3.65,3.65,0,0,0,.21.56c5.44,11.71,22.65,17.38,35.18,11.93"/><path class="f" d="M90.78,55.82c-2.44-.33-3.56,1-5,2.9s-2,5.7-2.08,8.13c-.09,6.83,3,12.18,9.36,14.82"/><path class="c" d="M93,82.22a.56.56,0,0,1-.21,0c-6.35-2.65-9.79-8.1-9.7-15.34,0-2.11.53-6.27,2.2-8.46s2.86-3.47,5.54-3.11a.55.55,0,0,1-.15,1.1c-2.13-.29-3.1.83-4.51,2.68s-1.93,5.16-2,7.81c-.09,6.85,3,11.8,9,14.3A.55.55,0,0,1,93,82.22Z"/><path class="c" d="M121,93.4a24.81,24.81,0,0,1-11-2.57.55.55,0,1,1,.49-1,23.93,23.93,0,0,0,25.17-2.53.55.55,0,0,1,.68.88A25,25,0,0,1,121,93.4Z"/><path class="c" d="M120.47,78.49a6,6,0,0,1-5.36-3.29.55.55,0,0,1,.15-.68,18.36,18.36,0,0,0,6.92-13.69.54.54,0,0,1,.57-.53.55.55,0,0,1,.53.57,19.47,19.47,0,0,1-7,14.21,4.89,4.89,0,0,0,7.56.91.55.55,0,1,1,.78.79,6,6,0,0,1-4.18,1.7Z"/><circle class="c" cx="104.21" cy="57.3" r="1.61"/><path class="g" d="M157,75.79a.77.77,0,0,1-.24,0,.78.78,0,0,1-.53-.88c1.08-5.79-1-11.78-5.78-16.43a.78.78,0,0,1,.81-1.29,13.2,13.2,0,0,1,4.35,3c.47.43,1,.87,1.47,1.29a8.25,8.25,0,0,1,2.63,7,22.67,22.67,0,0,1-2,6.94A.78.78,0,0,1,157,75.79Zm-1.89-14a19.62,19.62,0,0,1,2.83,7.93q.14-.73.24-1.47a6.67,6.67,0,0,0-2.1-5.64C155.72,62.32,155.4,62,155.09,61.76Z"/><circle class="c" cx="136.36" cy="57.3" r="1.61"/><path class="b" d="M95.33,46.62a2,2,0,0,1-1.5-3.2,21.31,21.31,0,0,1,8.39-6.1,58.52,58.52,0,0,1,43-2.29,2,2,0,0,1-1.24,3.7,54.63,54.63,0,0,0-40.16,2.15l-.09,0a17.39,17.39,0,0,0-6.88,5A2,2,0,0,1,95.33,46.62Z"/><path class="c" d="M152.61,70.91a.55.55,0,0,1-.55-.49c-.3-2.48-.48-5.07.89-7.16a3.81,3.81,0,0,1,3.2-2,2.69,2.69,0,0,1,2.24,1.64.55.55,0,1,1-1,.5,1.66,1.66,0,0,0-1.31-1,2.8,2.8,0,0,0-2.21,1.48c-1.16,1.78-1,4.15-.72,6.42a.55.55,0,0,1-.48.62Z"/><path class="c" d="M93.21,75c.11-3.65.13-7.31.1-11A67.9,67.9,0,0,0,93.21,75Z"/><path class="c" d="M152.9,42c.82-9.74,1.22-15.23.23-18.84s-8-2.44-11.62-3.39c-1.35-.34-8.33-1-10.24-3.46-4.87-6.27-15.29-7.11-21.1-1.7a73.73,73.73,0,0,0-5.58,5.45c-1.92,2.17-11.74,3.06-13.91,2.44C86.72,21.31,83.31,36.15,87,38c-.68,4.33,2,11.09,5.64,8.72q.61,8.63.68,17.29A68.7,68.7,0,0,1,98.64,42.9c9-5.42,16.18-7.18,23.66-5.78,9.27,1.73,14.71.27,23.71,4.13,2,9.52,2.74,29.22,2.74,29.22s.51,2.11,1.12-2.24c.17-1.22,0-9,2.57-11.57s-.39-5.14-.28-6.22Q152.55,46.29,152.9,42Z"/><path class="b" d="M127.87,134.71a37,37,0,0,1-6.77-.62,22,22,0,0,1-6.36-2.85c-.74-.43-1.43-.83-2.11-1.18-3.87-2-6.8-5.07-9.64-8a.78.78,0,0,1-.22-.47,99.3,99.3,0,0,1-.06-16.19.78.78,0,0,1,1.39-.42c3.06,3.91,8.08,6.61,14.12,7.6,2.59.43,11.53,1.46,17.67-3.15a.78.78,0,1,1,.94,1.25c-6.63,5-16.11,3.9-18.86,3.45a25.22,25.22,0,0,1-13-5.91,23.07,23.07,0,0,1-.38,2.88c-.32,1.88-.68,4-.18,5.26,1.77,4.38,8.08,6.19,13.16,7.63l2,.59c4.22,1.28,13.51-1.76,20.3-4,3-1,5.54-1.81,7.38-2.22a.81.81,0,0,1,.83.33c.38.56.38.56-3.2,5.83-1.25,1.83-3,4.44-3.7,5.58a1.72,1.72,0,0,1,.58,1.43.78.78,0,0,1-.49.67A37,37,0,0,1,127.87,134.71ZM104.3,121.16c2.69,2.79,5.48,5.65,9,7.52.71.37,1.42.78,2.17,1.22a21,21,0,0,0,5.88,2.67,35.42,35.42,0,0,0,18.4-1.47.82.82,0,0,1-.29-.35c-.23-.55-.27-.64,4.14-7.11.75-1.1,1.6-2.35,2.23-3.3-1.54.44-3.4,1-5.46,1.72-7.37,2.41-16.55,5.41-21.24,4l-2-.58c-4.39-1.25-10.17-2.9-13-6.56Q104.2,120,104.3,121.16Z"/><path class="b" d="M119.91,135.18a.78.78,0,0,1-.52-.2,3,3,0,0,1-.94-1.63l-1.67-.06h0c-1.51,0-3.16-.59-3.57-1.88a.93.93,0,0,1-.55-.64,1.11,1.11,0,0,1,.61-1.19l.11-.06a2.93,2.93,0,0,1,2.15-.15,35.48,35.48,0,0,0,7.19.65q.55-.35,1.08-.71-.9,0-1.79-.12h-.08a6.79,6.79,0,0,1-1-.29,12.36,12.36,0,0,1-2.88-.1.78.78,0,0,1-.75-.13l-.44-.36h0a.78.78,0,0,1,1-1.21h0a1.36,1.36,0,0,0,.59.2,6.84,6.84,0,0,1-1.08-1.42.78.78,0,0,1,.77-1.16l2.48.29a24.41,24.41,0,0,1,4.5.46,3.59,3.59,0,0,1,1.42.73,2,2,0,0,1,.52.65c1.18-.15,2.35-.35,3.5-.6a36.46,36.46,0,0,0,3.87-1.14c.87-.29,1.76-.59,2.67-.84.25-.07.43-.13.59-.19,1-.38,1.52-.16,2.2,1a.76.76,0,0,1,.07.14,4.8,4.8,0,0,1-.1,3.51l-.15.43a1.75,1.75,0,0,1-1.05,1.28l-.5.29a23.48,23.48,0,0,1-11,3l-7.07-.27a1.4,1.4,0,0,0,.31.4.78.78,0,0,1-.52,1.36Zm2.62-3.23,4.66.18a21.87,21.87,0,0,0,10.16-2.8l.53-.3a2.22,2.22,0,0,0,.25-.15,1.33,1.33,0,0,1,.08-.28l.18-.49a3.29,3.29,0,0,0,.11-2.34l-.19-.29-.11,0c-.18.07-.41.15-.7.23-.86.24-1.74.54-2.59.82l-.06,0h0a.78.78,0,0,1,.25.72c0,.23-.1.5-.16.78s-.14.64-.18.93a.78.78,0,0,1-.52.62,37.56,37.56,0,0,1-11.09,1.93Zm-7.86-1.16c0,.64,1.29.94,2.14.94l2.62.1.65-.32a37.43,37.43,0,0,1-4.9-.62l-.1,0A1.39,1.39,0,0,0,114.68,130.8ZM126,129.62l-.34.25a36,36,0,0,0,7.63-1.56v0a32.37,32.37,0,0,1-6.89,1A2.74,2.74,0,0,1,126,129.62Zm-6.18-3.14a5.32,5.32,0,0,0,1.33.84c.66,0,1.25-.09,1.6-.12l1.06-.08L125,127l-.21-.07a22.88,22.88,0,0,0-4.2-.42h-.08Z"/><path class="c" d="M150.4,125.31a.55.55,0,0,1-.28-.08,3.91,3.91,0,0,1-1.92-3.41c0-2.86.13-8.77.27-15,.17-7.25,2.44-20.38,3.14-24.23a3.88,3.88,0,0,1,3.05-3.15,9.06,9.06,0,0,0,4.45-2,12.69,12.69,0,0,0,3.3-7.61c.41-5.53-.62-10-2.91-12.53a5.77,5.77,0,0,0-4-2.08h0a3.81,3.81,0,0,1-3.77-3.51L151.1,42a2.8,2.8,0,0,0-1.55-2.35L123.68,26.82a2.8,2.8,0,0,0-1.86-.22L96,32.48a2.78,2.78,0,0,0-1.71,1.18l-1.16,1.7a2.8,2.8,0,0,0-.45,1.8l.68,7.31a3.72,3.72,0,0,1,0,.63,193.5,193.5,0,0,0,.23,31.15,2.92,2.92,0,0,0,.1.53l5.74,20.58a3.18,3.18,0,0,0,.18.48c5.29,11.39,22,17.05,34.45,11.66a.55.55,0,0,1,.44,1c-12.93,5.62-30.38-.32-35.9-12.21a4.29,4.29,0,0,1-.24-.64L92.62,77.08a4,4,0,0,1-.14-.73A194.53,194.53,0,0,1,92.25,45a2.66,2.66,0,0,0,0-.45l-.68-7.3a3.92,3.92,0,0,1,.64-2.53L93.37,33a3.88,3.88,0,0,1,2.38-1.64l25.83-5.88a3.92,3.92,0,0,1,2.6.31L150,38.62a3.91,3.91,0,0,1,2.17,3.28l.57,9.74a2.74,2.74,0,0,0,2.71,2.47,6.86,6.86,0,0,1,4.83,2.45c1.76,2,3.75,5.87,3.19,13.36a13.82,13.82,0,0,1-3.64,8.34,10.15,10.15,0,0,1-5,2.27,2.77,2.77,0,0,0-2.15,2.25c-.69,3.83-3,16.89-3.12,24.06-.14,6.25-.27,12.16-.27,15a2.8,2.8,0,0,0,1.37,2.45.55.55,0,0,1-.28,1Z"/><path class="c" d="M102.29,123.37a.55.55,0,0,1-.41-.18,3.91,3.91,0,0,1-1-2.41c-.17-3.17-.14-5.94-.12-8.62,0-3.17.05-6.44-.24-10.33a.55.55,0,0,1,.51-.59.57.57,0,0,1,.59.51c.3,3.93.27,7.23.25,10.42,0,2.66,0,5.41.12,8.55a2.79,2.79,0,0,0,.74,1.72.55.55,0,0,1-.41.93Z"/><path class="g" d="M137.49,142.4c-.74,1.45,14.42-18.47,14.42-18.47a15.9,15.9,0,0,0-2.29-6.9c-6.25,3.65-15.51,7.59-22.11,10.48C129.59,131.93,137.49,142.4,137.49,142.4Z"/><path class="c" d="M137.44,143.05a.49.49,0,0,1-.26-.11.57.57,0,0,1-.25-.38c-1.07-1.43-8-10.66-9.91-14.82a.55.55,0,0,1,.28-.74l2.3-1c6.34-2.77,14.23-6.22,19.76-9.45a.55.55,0,0,1,.75.19,16.53,16.53,0,0,1,2.37,7.14.55.55,0,0,1-.11.38s-3.56,4.67-7.14,9.33C138.94,141.74,137.93,143.05,137.44,143.05Zm-9.17-15.27c2,4,7.78,11.74,9.3,13.78,1.85-2.21,8.92-11.42,13.78-17.8a15.44,15.44,0,0,0-1.91-6c-5.55,3.18-13.21,6.53-19.4,9.23Z"/><path class="g" d="M100.59,117.08c5.48,2.92,12.05,6,17.33,9.29-.07,1.22-.46,1.53-1.16,2.59-1.91,2.9-6.34,11.62-8.26,14.51-.9-.09-8-15.83-11.3-19.77C98.42,121.25,99.38,119.46,100.59,117.08Z"/><path class="c" d="M108.5,144h-.05c-.63-.06-1.14-.91-4.58-7.54-2.38-4.6-5.35-10.33-7.09-12.43a.56.56,0,0,1-.07-.6c.69-1.39,1.3-2.57,1.92-3.76.47-.91.95-1.83,1.47-2.87a.55.55,0,0,1,.75-.24c1.72.92,3.52,1.83,5.42,2.8,4.08,2.08,8.31,4.24,11.94,6.51a.56.56,0,0,1,.26.5,4,4,0,0,1-.91,2.36l-.34.5c-.94,1.43-2.55,4.37-4.1,7.22s-3.18,5.83-4.15,7.3A.55.55,0,0,1,108.5,144Zm.25-1ZM97.86,123.63c1.83,2.36,4.57,7.65,7,12.35,1.35,2.6,2.84,5.49,3.57,6.59,1-1.56,2.36-4.13,3.72-6.62,1.56-2.87,3.18-5.83,4.15-7.3l.36-.52a3,3,0,0,0,.68-1.47c-3.53-2.18-7.61-4.26-11.57-6.28-1.72-.88-3.36-1.71-4.94-2.55l-1.22,2.37C99,121.3,98.48,122.38,97.86,123.63Z"/><path class="c" d="M122.81,161.58a.55.55,0,0,1-.55-.55c0-.21-.33-21.58-4.73-33.66a.55.55,0,0,1,1-.38c4.46,12.26,4.79,33.8,4.79,34a.55.55,0,0,1-.55.56Z"/><path class="c" d="M121.58,139l-.16,0a.55.55,0,0,1-.37-.69,36.9,36.9,0,0,1,5.27-10.75.55.55,0,0,1,.9.64,35.81,35.81,0,0,0-5.11,10.43A.55.55,0,0,1,121.58,139Z"/><rect class="h" width="256" height="172.14"/></svg>