<svg xmlns="http://www.w3.org/2000/svg" viewBox="0 0 256 171.48"><defs><style>.a{fill:#fafafa;}.b{fill:#999;}.c{fill:#5a585a;}.d{fill:gray;}.e{fill:#d7d7d9;}.f{fill:#fff;}.g{fill:#b3b3b3;}.h{fill:#fb0;}.i{fill:#666;}.j{fill:#e6e6e6;}.k{fill:none;}</style></defs><title>Triple-Scoop Ice-Cream Sundae</title><path class="a" d="M104.21,164.28a12.33,12.33,0,0,1-6.73-22.65c4.16-2.71,9.15-6,14.64-9.6-21.31,7.58-41.79,15.14-55.53,20.84A12.33,12.33,0,0,1,46,130.65c5.23-2.84,11.88-6.32,19.5-10.24A12.33,12.33,0,0,1,61,99.83c-4.94,1.39-10.12,3-15.73,5.1A12.33,12.33,0,0,1,35.12,82.56c9.46-5.21,18.39-9.88,26.95-14.2a12.33,12.33,0,0,1-7.53-22.83C68.9,36.89,89.22,27.81,102.67,21.8c4.51-2,9.62-4.3,10.82-5a12.33,12.33,0,0,1,18.59,9.8,277,277,0,0,0,33.32-9.28,12.33,12.33,0,0,1,10,22.44l-3.32,1.82c5.11-1.62,10.52-3.24,16.51-4.9a12.33,12.33,0,0,1,15.49,13.72l9.53-3.1a12.33,12.33,0,0,1,9.17,22.82c-.28.14-6.87,3.33-17.36,8.43a12.33,12.33,0,0,1,.5,20.83l-1.18.79L210.15,98a12.33,12.33,0,0,1,11.42,21.71c-5.41,3.57-11.77,8.11-18.2,12.86a12.34,12.34,0,0,1-6.18,18.6L163.1,162.9a12.33,12.33,0,0,1-16-14.38c-13.13,5-26.19,10-38.23,14.85A12.3,12.3,0,0,1,104.21,164.28Z"/><path class="b" d="M119.76,83.55c-13.91,4-15.83,18.76-14.31,26,.91,4.33,4.86,8.51,8.51,11.06a19.68,19.68,0,0,0,10.65,3.21c7.43.27,14.19-1.77,19.3-7.09s6.75-13.9,5.23-21.08A19,19,0,0,0,146,88.29c-4.93-6.79-14.65-9.16-22.82-6.92"/><path class="c" d="M125.89,124.35l-1.31,0A20.15,20.15,0,0,1,113.65,121c-3.59-2.51-7.76-6.82-8.72-11.38-1.45-6.87.24-22.42,14.68-26.59l.29,1c-13.73,4-15.32,18.8-13.94,25.36.89,4.26,4.87,8.34,8.29,10.73a19.1,19.1,0,0,0,10.36,3.12c7.86.29,14.21-2,18.9-6.93s6.68-13.11,5.1-20.6a18.41,18.41,0,0,0-3.09-7.14c-4.5-6.19-13.85-9-22.25-6.71l-.28-1c8.95-2.46,18.56.47,23.39,7.12a19.44,19.44,0,0,1,3.26,7.54c1.68,7.93-.43,16.39-5.37,21.54C139.64,121.9,133.46,124.35,125.89,124.35Z"/><path class="d" d="M126.08,97.55a8.58,8.58,0,0,1-1.14-.07c-3.74-.5-7.84-2.09-11.45-3.49l-2.37-.91a1.76,1.76,0,0,1,1.23-3.3l2.41.92c3.43,1.33,7.33,2.84,10.65,3.28,3.55.48,10.83-3,14.86-5.38a1.76,1.76,0,0,1,1.81,3C141,92.27,132,97.55,126.08,97.55Z"/><path class="e" d="M119.76,54.76c-13.91,4-15.83,18.76-14.31,26,.91,4.33,4.86,8.51,8.51,11.06A19.68,19.68,0,0,0,124.6,95c7.43.27,14.19-1.77,19.3-7.09s6.75-13.9,5.23-21.08A19,19,0,0,0,146,59.5c-4.93-6.79-14.65-9.16-22.82-6.92"/><path class="c" d="M125.89,95.56l-1.31,0a20.15,20.15,0,0,1-10.93-3.31c-3.59-2.51-7.76-6.82-8.72-11.38-1.45-6.87.24-22.41,14.68-26.59l.29,1c-13.73,4-15.32,18.8-13.94,25.36.89,4.26,4.87,8.34,8.29,10.73a19.1,19.1,0,0,0,10.36,3.12c7.86.29,14.21-2,18.9-6.93s6.68-13.11,5.1-20.6a18.4,18.4,0,0,0-3.09-7.14c-4.5-6.19-13.86-9-22.25-6.71l-.28-1c8.94-2.46,18.56.47,23.39,7.12a19.43,19.43,0,0,1,3.26,7.54c1.68,7.93-.43,16.39-5.37,21.54C139.64,93.11,133.46,95.56,125.89,95.56Z"/><path class="f" d="M138.11,60.78a22.61,22.61,0,0,0,13.43-17.86,22.16,22.16,0,0,0-31.2-22.72,24.91,24.91,0,0,0-8.13,6.13c-4.58,5.12-7.2,12.19-6.09,19C107.37,52.75,113,61.66,121.67,64"/><path class="c" d="M121.67,64.53l-.14,0c-8.75-2.36-14.64-11.41-15.94-19.13-1.08-6.6,1.24-13.86,6.21-19.41a25.26,25.26,0,0,1,8.29-6.26,22.69,22.69,0,0,1,32,23.26,23.25,23.25,0,0,1-13.74,18.29.53.53,0,1,1-.42-1A22.19,22.19,0,0,0,151,42.85a21.63,21.63,0,0,0-30.47-22.17,24.22,24.22,0,0,0-7.94,6c-4.77,5.32-7,12.25-6,18.54,1.24,7.38,6.85,16,15.17,18.28a.53.53,0,0,1-.14,1Z"/><path class="e" d="M148.69,66.26a1.41,1.41,0,0,1-1.39-1.21,1.41,1.41,0,0,1-.36-2.07,1.41,1.41,0,0,1-.33-2.51,131.37,131.37,0,0,0,11.78-9.32,135.61,135.61,0,0,1,11.84-9.38,5,5,0,0,1,1.87-.88A2.75,2.75,0,0,1,174.88,42l0,.07a1.87,1.87,0,0,1,.72.39,2,2,0,0,1,.69,1.56s0,.08,0,.12a2.76,2.76,0,0,1-.75,1.6,7,7,0,0,1-4.09,2.32l-9.64,8.68c-3.82,3.44-7.77,7-12.54,9.37A1.41,1.41,0,0,1,148.69,66.26Zm26.23-21.59h0Z"/><path class="d" d="M154.33,62.18a1.41,1.41,0,0,1-1.41-1.36l-.16-4.5a1.41,1.41,0,0,1,2.82-.1l.16,4.5a1.41,1.41,0,0,1-1.36,1.46Z"/><path class="d" d="M160.76,56.63a1.41,1.41,0,0,1-1.41-1.41c0-.19-.07-.83-.12-1.34a13.71,13.71,0,0,1-.15-2.89,1.41,1.41,0,1,1,2.78.45c0,.27.11,1.49.17,2.15s.13,1.32.13,1.63A1.41,1.41,0,0,1,160.76,56.63Z"/><path class="d" d="M168.19,51.21a1.41,1.41,0,0,1-1.3-.86,10.23,10.23,0,0,1-.81-3.79,1.41,1.41,0,0,1,2.79-.31c.27,1.3.7,3.25.7,3.25a1.41,1.41,0,0,1-1.38,1.71Z"/><path class="d" d="M174.84,46.21a1.41,1.41,0,0,1-1.34-1c-.1-.3-.22-.63-.35-1a11.92,11.92,0,0,1-.83-3,1.41,1.41,0,1,1,2.81-.24,10.15,10.15,0,0,0,.66,2.25c.14.38.28.75.39,1.09a1.41,1.41,0,0,1-1.34,1.84Z"/><path class="g" d="M129.37,87.18a13.78,13.78,0,0,1-9.12-3,7.35,7.35,0,0,1-2.73-5,3.75,3.75,0,0,1,1.33-2.92.53.53,0,1,1,.7.79,2.69,2.69,0,0,0-1,2.11,6.33,6.33,0,0,0,2.35,4.22c3.57,3,8.28,3.06,11.61,2.54a36.19,36.19,0,0,0,4.14-1,31.13,31.13,0,0,1,5.08-1.15.53.53,0,0,1,.12,1A30.36,30.36,0,0,0,137,85.87a37,37,0,0,1-4.27,1A21.77,21.77,0,0,1,129.37,87.18Z"/><path class="c" d="M146.33,69.24l-.77-.72c3.7-4,16.53-13.6,22.69-18.21l2.06-1.54c.57-.43,1.17-.81,1.76-1.18a9.88,9.88,0,0,0,3.41-2.94,11.61,11.61,0,0,0-1.15-3.27,1.3,1.3,0,0,0-.83-.6.6.6,0,0,0-.49.06C165,47.07,156.75,53.2,148.47,59l-.61-.86c8.27-5.83,16.51-12,24.49-18.18a1.62,1.62,0,0,1,1.37-.25,2.33,2.33,0,0,1,1.53,1.15,12.67,12.67,0,0,1,1.29,3.76l0,.18-.09.16a10.36,10.36,0,0,1-3.86,3.48c-.57.36-1.15.73-1.69,1.13l-2.06,1.54C162.74,55.75,150,65.32,146.33,69.24Z"/><path class="g" d="M144.95,81.45a.53.53,0,0,1-.43-.83c1.27-1.83.85-4.31.27-6.08a.53.53,0,0,1,1-.33c.65,2,1.11,4.82-.41,7A.53.53,0,0,1,144.95,81.45Z"/><path class="h" d="M110.86,24.52A26.61,26.61,0,0,0,104.15,39c-.46,4,.41,7.91,1.45,11.78.73,2.72,2.06,5.35,2.43,8.15.39,3-.16,3.81-1.49,6.54-.43.88-3,7.41-2.09,8.33s3.17,1.31,4.42,1.44a5.56,5.56,0,0,1,3.49,1.27c2.38,2.41-.73,6.61.42,9.81a2.48,2.48,0,0,0,1,1.31c1.15.71,2.75-.11,3.33-1.31a6.84,6.84,0,0,0,.22-4,8.12,8.12,0,0,1,0-4c.71-2,2.86-3,4.91-3.27s4.15-.07,6.2-.37c4.28-.65,8-3.67,12.3-4,1.78-.12,3.57.23,5.34,0s3.38-.22,3.93-1.93c-4.42-9.73,2.41-17.9,3.39-26.28A23.94,23.94,0,0,0,119.7,18,26.92,26.92,0,0,0,110.86,24.52Z"/><path class="f" d="M116.51,62.31a1.76,1.76,0,0,1-1.24-3c2.37-2.34,2.06-6.42,1.67-8.63-.2-1.1-.46-2.18-.73-3.33a28.87,28.87,0,0,1-1.13-7.7c.1-3.21,2.81-13.85,7.2-15.61a1.76,1.76,0,1,1,1.31,3.27c-2,.79-4.87,8.62-5,12.45a25.8,25.8,0,0,0,1,6.76c.28,1.15.56,2.33.78,3.53.89,5-.05,9.18-2.65,11.75A1.75,1.75,0,0,1,116.51,62.31Z"/><path class="f" d="M114.22,74.24h-.13a18.37,18.37,0,0,1-6.59-2.15,1.06,1.06,0,0,1-.51-1.21l1.31-4.67a1.06,1.06,0,0,1,2,.57l-1.08,3.85a16.26,16.26,0,0,0,5.09,1.52,1.06,1.06,0,0,1-.13,2.1Z"/><path class="i" d="M117.14,112.72a.52.52,0,0,1-.18,0,.53.53,0,0,1-.32-.68c.41-1.12-.5-2.38-1.51-3.08a14,14,0,0,0-1.56-.89,11,11,0,0,1-2.25-1.4,6.5,6.5,0,0,1-2.14-5.09,8.24,8.24,0,0,1,2.1-5.07.53.53,0,0,1,.79.71,7.18,7.18,0,0,0-1.83,4.41,5.44,5.44,0,0,0,1.79,4.25,10,10,0,0,0,2,1.25,15,15,0,0,1,1.67,1c1.38,1,2.5,2.65,1.9,4.31A.53.53,0,0,1,117.14,112.72Z"/><path class="i" d="M147.86,104.64h-.08a.53.53,0,0,1-.45-.6c.46-3.15.09-4.07-.92-6.51-.19-.46-.4-1-.63-1.56a.53.53,0,1,1,1-.38c.23.58.43,1.09.62,1.54a10.57,10.57,0,0,1,1,7.07A.53.53,0,0,1,147.86,104.64Z"/><path class="i" d="M137.09,96.47H137a7.65,7.65,0,0,0-2.49-.09,5.82,5.82,0,0,1-3.35-.53.53.53,0,0,1,.41-1,4.76,4.76,0,0,0,2.84.45,8.7,8.7,0,0,1,2.79.11.53.53,0,0,1-.1,1Z"/><path class="d" d="M129.38,112.57c-9.06,0-17.4-2-24.37-4.15a1.76,1.76,0,0,1,1-3.37c11.19,3.4,26,6.56,41.4.8a1.76,1.76,0,1,1,1.23,3.3A54.55,54.55,0,0,1,129.38,112.57Z"/><path class="g" d="M110.29,87.51a.53.53,0,0,1-.4-.18,15.86,15.86,0,0,1-3.87-11,.53.53,0,0,1,1.06,0,14.8,14.8,0,0,0,3.61,10.24.53.53,0,0,1-.4.87Z"/><path class="j" d="M135.61,148.54c-2.58,5.94-5.89,13.13-8.46,19-7.56-21-15.53-41.27-23.89-62,3.23,1.49,6,1.38,9.11,2.26,2.62.73,5.32,2.94,7.85,3.27,3.27.42,6-1.07,9.16-1.31,4.25-.32,12.35,1.37,15.7-1.31s2.05-.49,4.58-2c-2.56,13-12.43,38-12.43,38"/><path class="c" d="M127.15,168h0a.53.53,0,0,1-.48-.35c-8-22.36-16.58-43.88-23.88-62a.53.53,0,0,1,.71-.68,20.63,20.63,0,0,0,5.53,1.51,33.59,33.59,0,0,1,3.5.73,19.27,19.27,0,0,1,3.63,1.6,13.41,13.41,0,0,0,4.15,1.66,14.16,14.16,0,0,0,5.33-.62,22.42,22.42,0,0,1,3.72-.7,40.32,40.32,0,0,1,4.79.09c4,.22,8.45.46,10.63-1.28,1.94-1.55,2.49-1.61,3.16-1.53.27,0,.55.07,1.48-.48a.53.53,0,0,1,.78.56c-2.54,12.88-12.36,37.86-12.46,38.11a.53.53,0,1,1-1-.39c.1-.24,9.37-23.83,12.19-36.88a2.23,2.23,0,0,1-1.14.13c-.31,0-.64-.08-2.37,1.31-2.49,2-7.19,1.73-11.34,1.51a39.83,39.83,0,0,0-4.65-.09,21.62,21.62,0,0,0-3.55.67,15.21,15.21,0,0,1-5.72.64,14.33,14.33,0,0,1-4.5-1.77,18.57,18.57,0,0,0-3.42-1.52,32.74,32.74,0,0,0-3.39-.71,25.32,25.32,0,0,1-4.62-1.1c7.06,17.52,15.24,38.15,23,59.61,1-2.22,2.06-4.61,3.14-7,1.64-3.64,3.33-7.41,4.78-10.75a.53.53,0,0,1,1,.42c-1.45,3.35-3.15,7.12-4.79,10.76-1.28,2.85-2.55,5.66-3.67,8.22A.53.53,0,0,1,127.15,168Z"/><path class="g" d="M134,152.15a.53.53,0,0,1-.4-.18c-7.52-8.78-16.86-27.53-20.82-41.82a.53.53,0,0,1,1-.28c3.43,12.4,12.53,32,20.6,41.41a.53.53,0,0,1-.4.87Z"/><path class="g" d="M138.64,133.63a.53.53,0,0,1-.36-.15c-6.11-5.82-9-13.22-11.34-20.29a.53.53,0,0,1,1-.34c2.35,7,5.13,14.21,11.07,19.87a.53.53,0,0,1-.36.91Z"/><path class="g" d="M144.77,118.25a.53.53,0,0,1-.47-.28l-2.62-4.91a.53.53,0,0,1,.93-.5l2.62,4.91a.53.53,0,0,1-.47.78Z"/><path class="g" d="M120.35,149a.53.53,0,0,1-.4-.87,196.46,196.46,0,0,0,24.42-36.67.53.53,0,0,1,.94.48,197.52,197.52,0,0,1-24.56,36.86A.53.53,0,0,1,120.35,149Z"/><path class="g" d="M124.92,159.89a.53.53,0,0,1-.28-1,25.58,25.58,0,0,0,6.94-6.52.53.53,0,1,1,.85.62,26.62,26.62,0,0,1-7.23,6.79A.53.53,0,0,1,124.92,159.89Z"/><path class="g" d="M115.66,131.21a.53.53,0,0,1-.36-.91,103,103,0,0,0,16.48-19.65.53.53,0,1,1,.88.59A104,104,0,0,1,116,131.07.53.53,0,0,1,115.66,131.21Z"/><path class="g" d="M108.36,118.61a.53.53,0,0,1-.32-.95,31.75,31.75,0,0,0,7.5-8.29.53.53,0,1,1,.9.56,32.79,32.79,0,0,1-7.75,8.57A.52.52,0,0,1,108.36,118.61Z"/><path class="g" d="M128.86,162.72a.53.53,0,0,1-.35-.13,47.19,47.19,0,0,1-4.92-6l-.5-.69a.53.53,0,0,1,.85-.63l.51.69a47.72,47.72,0,0,0,4.77,5.87.53.53,0,0,1-.35.92Z"/><path class="c" d="M127.15,168h0a.53.53,0,0,1-.48-.35c-8-22.36-16.58-43.88-23.88-62a.53.53,0,0,1,.71-.68,20.63,20.63,0,0,0,5.53,1.51,33.59,33.59,0,0,1,3.5.73,19.27,19.27,0,0,1,3.63,1.6,13.41,13.41,0,0,0,4.15,1.66,14.16,14.16,0,0,0,5.33-.62,22.42,22.42,0,0,1,3.72-.7,40.32,40.32,0,0,1,4.79.09c4,.22,8.45.46,10.63-1.28,1.94-1.55,2.49-1.61,3.16-1.53.27,0,.55.07,1.48-.48a.53.53,0,0,1,.78.56c-2.54,12.88-12.36,37.86-12.46,38.11a.53.53,0,1,1-1-.39c.1-.24,9.37-23.83,12.19-36.88a2.23,2.23,0,0,1-1.14.13c-.31,0-.64-.08-2.37,1.31-2.49,2-7.19,1.73-11.34,1.51a39.83,39.83,0,0,0-4.65-.09,21.62,21.62,0,0,0-3.55.67,15.21,15.21,0,0,1-5.72.64,14.33,14.33,0,0,1-4.5-1.77,18.57,18.57,0,0,0-3.42-1.52,32.74,32.74,0,0,0-3.39-.71,25.32,25.32,0,0,1-4.62-1.1c7.06,17.52,15.24,38.15,23,59.61,1-2.22,2.06-4.61,3.14-7,1.64-3.64,3.33-7.41,4.78-10.75a.53.53,0,0,1,1,.42c-1.45,3.35-3.15,7.12-4.79,10.76-1.28,2.85-2.55,5.66-3.67,8.22A.53.53,0,0,1,127.15,168Z"/><rect class="k" y="-0.33" width="256" height="172.14"/></svg>